<svg width="93" height="20" viewBox="0 0 93 20" fill="none" xmlns="http://www.w3.org/2000/svg">
<g clip-path="url(#clip0_135_4280)">
<path d="M0.5 12.5C0.5 11.4474 0.666191 10.4652 0.998574 9.55357C1.33096 8.64193 1.79629 7.84776 2.39459 7.17105C2.99287 6.49437 3.7086 5.96336 4.54179 5.57801C5.37496 5.19269 6.2879 5.00001 7.28062 5C8.03402 5.00001 8.71873 5.1175 9.33476 5.35244C9.95077 5.58742 10.5468 5.97276 11.123 6.50846V5.28196H14.5V19.7181H11.123V18.4915C10.5468 19.0273 9.95077 19.4126 9.33476 19.6476C8.71873 19.8825 8.03402 20 7.28062 20C6.2879 20 5.37496 19.8073 4.54179 19.422C3.7086 19.0367 2.99287 18.5056 2.39459 17.8289C1.79629 17.1523 1.33096 16.3581 0.998574 15.4464C0.666191 14.5348 0.5 13.5526 0.5 12.5ZM7.71938 16.6306C7.98527 16.6306 8.26447 16.6001 8.55698 16.539C8.84947 16.4779 9.14418 16.3745 9.44112 16.2289C9.73804 16.0832 10.0283 15.8882 10.312 15.6438C10.5956 15.3994 10.8659 15.0987 11.123 14.7415V10.2585C10.8659 9.90133 10.5956 9.60293 10.312 9.36325C10.0283 9.1236 9.73804 8.92858 9.44112 8.7782C9.14418 8.62783 8.84947 8.5221 8.55698 8.461C8.26447 8.39993 7.98527 8.36938 7.71938 8.36936C7.19642 8.36938 6.7067 8.47275 6.25024 8.67951C5.79376 8.88629 5.39711 9.17529 5.06031 9.54652C4.72348 9.91778 4.45979 10.3548 4.26923 10.8576C4.07866 11.3604 3.98338 11.9079 3.98338 12.5C3.98338 13.0921 4.07866 13.6396 4.26923 14.1424C4.45979 14.6452 4.72348 15.0822 5.06031 15.4535C5.39711 15.8247 5.79376 16.1137 6.25024 16.3205C6.7067 16.5273 7.19642 16.6306 7.71938 16.6306Z" fill="white"/>
<path d="M24.5014 8.38986C22.7418 8.40167 21.2133 9.52637 21.2133 11.1954V19H17.5V11.2893C17.5207 8.07397 20.5563 5.04332 24.4481 5H24.5519C28.4437 5.04332 31.4793 8.07397 31.5 11.2893V19H27.7867V11.1954C27.7867 9.52637 26.2582 8.40166 24.4986 8.38986" fill="white"/>
<path d="M32.5 12.5181C32.5 11.4681 32.6662 10.4883 32.9986 9.57883C33.331 8.66939 33.7963 7.87714 34.3946 7.20207C34.9929 6.52703 35.7086 5.9973 36.5418 5.61288C37.375 5.22849 38.2879 5.03628 39.2806 5.03627C40.034 5.03628 40.721 5.15348 41.3414 5.38786C41.9618 5.62227 42.5557 6.00199 43.123 6.52702V1H46.5V19.7187H43.123V18.5093C42.5557 19.0437 41.9618 19.4257 41.3414 19.6554C40.721 19.8852 40.034 20 39.2806 20C38.2879 20 37.375 19.8078 36.5418 19.4234C35.7086 19.039 34.9929 18.5093 34.3946 17.8342C33.7963 17.1591 33.331 16.3669 32.9986 15.4574C32.6662 14.548 32.5 13.5682 32.5 12.5181ZM39.7194 16.6388C39.9853 16.6388 40.2645 16.6083 40.557 16.5474C40.8495 16.4865 41.1442 16.3833 41.4411 16.238C41.738 16.0926 42.0283 15.8981 42.312 15.6543C42.5956 15.4106 42.8659 15.1105 43.123 14.7543V10.282C42.8659 9.92575 42.5956 9.62807 42.312 9.38897C42.0283 9.1499 41.738 8.95535 41.4411 8.80533C41.1442 8.65533 40.8495 8.54985 40.557 8.4889C40.2645 8.42798 39.9853 8.3975 39.7194 8.39748C39.1964 8.3975 38.7067 8.50063 38.2502 8.70689C37.7938 8.91316 37.3971 9.20147 37.0603 9.5718C36.7235 9.94216 36.4598 10.3781 36.2692 10.8797C36.0787 11.3813 35.9834 11.9275 35.9834 12.5181C35.9834 13.1088 36.0787 13.655 36.2692 14.1566C36.4598 14.6582 36.7235 15.0941 37.0603 15.4645C37.3971 15.8348 37.7938 16.1231 38.2502 16.3294C38.7067 16.5357 39.1964 16.6388 39.7194 16.6388Z" fill="white"/>
<path d="M64.007 16.6306C64.5362 16.6306 65.0353 16.5296 65.5042 16.3275C65.9731 16.1255 66.3816 15.8412 66.7298 15.4746C67.078 15.1081 67.3519 14.6734 67.5515 14.1706C67.7511 13.6678 67.851 13.1109 67.851 12.5C67.851 11.8985 67.7488 11.3463 67.5446 10.8435C67.3403 10.3407 67.0617 9.90603 66.7089 9.53947C66.3561 9.17295 65.9475 8.88629 65.4833 8.67951C65.019 8.47275 64.5269 8.36938 64.007 8.36936C63.4777 8.36938 62.9786 8.47275 62.5097 8.67951C62.0408 8.88629 61.6323 9.17295 61.2841 9.53947C60.9359 9.90603 60.6597 10.3407 60.4554 10.8435C60.2512 11.3463 60.149 11.8985 60.149 12.5C60.149 13.1109 60.2488 13.6678 60.4485 14.1706C60.6481 14.6734 60.922 15.1081 61.2702 15.4746C61.6184 15.8412 62.0269 16.1255 62.4958 16.3275C62.9647 16.5296 63.4684 16.6306 64.007 16.6306ZM64.007 20C62.9763 20 62.006 19.812 61.0961 19.4361C60.1862 19.0602 59.39 18.5362 58.7075 17.8642C58.0251 17.1922 57.4865 16.398 57.0919 15.4817C56.6973 14.5653 56.5 13.5714 56.5 12.5C56.5 11.4568 56.6973 10.4793 57.0919 9.56767C57.4865 8.65603 58.0227 7.86185 58.7006 7.18515C59.3784 6.50847 60.1746 5.97511 61.0891 5.58506C62.0037 5.19503 62.9763 5.00001 64.007 5C65.0376 5.00001 66.0079 5.19503 66.9178 5.58506C67.8278 5.97511 68.6216 6.50847 69.2994 7.18515C69.9772 7.86185 70.5135 8.65603 70.9081 9.56767C71.3027 10.4793 71.5 11.4568 71.5 12.5C71.5 13.5714 71.3027 14.5653 70.9081 15.4817C70.5135 16.398 69.9749 17.1922 69.2925 17.8642C68.61 18.5362 67.8161 19.0602 66.9109 19.4361C66.0056 19.812 65.0376 20 64.007 20Z" fill="white"/>
<path d="M73.4937 4C73.2227 4.00001 72.9667 3.94709 72.7254 3.84127C72.4841 3.73546 72.2725 3.59155 72.0905 3.40952C71.9085 3.22752 71.7646 3.01589 71.6587 2.77461C71.5529 2.53335 71.5 2.27727 71.5 2.00635C71.5 1.73547 71.5529 1.47727 71.6587 1.23174C71.7646 0.986261 71.9085 0.772509 72.0905 0.590476C72.2725 0.408483 72.4841 0.264571 72.7254 0.158733C72.9667 0.052929 73.2227 2.022e-05 73.4937 0C73.7645 2.022e-05 74.0227 0.0529088 74.2683 0.158733C74.5137 0.264571 74.7275 0.408483 74.9095 0.590476C75.0915 0.772509 75.2354 0.986261 75.3413 1.23174C75.4471 1.47727 75.5 1.73547 75.5 2.00635C75.5 2.27727 75.4471 2.53335 75.3413 2.77461C75.2354 3.01589 75.0915 3.22752 74.9095 3.40952C74.7275 3.59155 74.5137 3.73546 74.2683 3.84127C74.0227 3.94711 73.7645 4.00001 73.4937 4Z" fill="white"/>
<path d="M72.5 6H76.5V20H72.5V6Z" fill="white"/>
<path d="M78.5 12.5181C78.5 11.4681 78.6662 10.4883 78.9986 9.57883C79.331 8.66939 79.7963 7.87714 80.3946 7.20207C80.9929 6.52703 81.7086 5.9973 82.5418 5.61288C83.375 5.22849 84.2879 5.03628 85.2806 5.03627C86.034 5.03628 86.721 5.15348 87.3414 5.38786C87.9618 5.62227 88.5557 6.00199 89.123 6.52702V1H92.5V19.7187H89.123V18.5093C88.5557 19.0437 87.9618 19.4257 87.3414 19.6554C86.721 19.8852 86.034 20 85.2806 20C84.2879 20 83.375 19.8078 82.5418 19.4234C81.7086 19.039 80.9929 18.5093 80.3946 17.8342C79.7963 17.1591 79.331 16.3669 78.9986 15.4574C78.6662 14.548 78.5 13.5682 78.5 12.5181ZM85.7194 16.6388C85.9853 16.6388 86.2645 16.6083 86.557 16.5474C86.8495 16.4865 87.1442 16.3833 87.4411 16.238C87.738 16.0926 88.0283 15.8981 88.312 15.6543C88.5956 15.4106 88.8659 15.1105 89.123 14.7543V10.282C88.8659 9.92575 88.5956 9.62807 88.312 9.38897C88.0283 9.1499 87.738 8.95535 87.4411 8.80533C87.1442 8.65533 86.8495 8.54985 86.557 8.4889C86.2645 8.42798 85.9853 8.3975 85.7194 8.39748C85.1964 8.3975 84.7067 8.50063 84.2502 8.70689C83.7938 8.91316 83.3971 9.20147 83.0603 9.5718C82.7235 9.94216 82.4598 10.3781 82.2692 10.8797C82.0787 11.3813 81.9834 11.9275 81.9834 12.5181C81.9834 13.1088 82.0787 13.655 82.2692 14.1566C82.4598 14.6582 82.7235 15.0941 83.0603 15.4645C83.3971 15.8348 83.7938 16.1231 84.2502 16.3294C84.7067 16.5357 85.1964 16.6388 85.7194 16.6388Z" fill="white"/>
<path d="M55.5 8.41447C53.1135 8.41447 52.0611 9.58487 52.0611 11.2436V19H48.5V11.3369C48.5199 8.14144 50.4617 5 55.5 5" fill="white"/>
</g>
<defs>
<clipPath id="clip0_135_4280">
<rect width="92" height="20" fill="white" transform="translate(0.5)"/>
</clipPath>
</defs>
</svg>
