<svg width="360" height="49" viewBox="0 0 360 49" fill="none" xmlns="http://www.w3.org/2000/svg">
<path d="M254 16H274V24H256C254.895 24 254 23.1046 254 22V16Z" fill="#22282F"/>
<path d="M16 20C16 18.8954 16.8954 18 18 18H38V28C38 29.1046 37.1046 30 36 30H18C16.8954 30 16 29.1046 16 28V20Z" fill="#22282F"/>
<path d="M263 24H274V38C274 39.1046 273.105 40 272 40H265C263.895 40 263 39.1046 263 38V24Z" fill="#22282F"/>
<path d="M26 10H38V18H26V10Z" fill="#22282F"/>
<path d="M0 0H21V6C21 7.10457 20.1046 8 19 8H0V0Z" fill="#22282F"/>
<path d="M0 8H12V14C12 15.1046 11.1046 16 10 16H2C0.895431 16 0 15.1046 0 14V8Z" fill="#22282F"/>
<path d="M42 0H97V6C97 7.10457 96.1046 8 95 8H44C42.8954 8 42 7.10457 42 6V0Z" fill="#22282F"/>
<path d="M51 8H81V14C81 15.1046 80.1046 16 79 16H53C51.8954 16 51 15.1046 51 14V8Z" fill="#22282F"/>
<path d="M118 0H140V6C140 7.10457 139.105 8 138 8H118V0Z" fill="#22282F"/>
<path d="M118 8H130V14C130 15.1046 129.105 16 128 16H120C118.895 16 118 15.1046 118 14V8Z" fill="#22282F"/>
<path d="M171 0H336V6C336 7.10457 335.105 8 334 8H173C171.895 8 171 7.10457 171 6V0Z" fill="#22282F"/>
<path d="M181 8H211V14C211 15.1046 210.105 16 209 16H183C181.895 16 181 15.1046 181 14V8Z" fill="#22282F"/>
<path d="M229 8H246V14C246 15.1046 245.105 16 244 16H231C229.895 16 229 15.1046 229 14V8Z" fill="#22282F"/>
<path d="M283 8H321V14C321 15.1046 320.105 16 319 16H285C283.895 16 283 15.1046 283 14V8Z" fill="#22282F"/>
<path d="M347 0H360V8H349C347.895 8 347 7.10457 347 6V0Z" fill="#22282F"/>
</svg>
