<svg width="128" height="24" viewBox="0 0 128 24" fill="none" xmlns="http://www.w3.org/2000/svg">
<g clip-path="url(#clip0_2038_378)">
<path d="M15.4318 15.1785L19.1162 21.8414H12.28L9.16904 16.1473H6.22184V21.8414H0V1.65723H11.3794C16.0868 1.65723 19.0753 4.23868 19.0753 8.88105C19.0753 11.8683 17.6836 14.0082 15.4318 15.1785ZM6.22184 6.903V10.8994H10.6426C11.9525 10.8994 12.7712 10.1325 12.7712 8.88105C12.7712 7.62963 11.9525 6.903 10.6426 6.903H6.22184ZM38.887 23.3333L20.2624 18.368L25.2562 0L34.5686 2.48266L43.8808 4.96531L38.887 23.3333ZM35.3668 9.80952L30.1682 8.39662L28.7765 13.5234L33.975 14.9367L35.3668 9.80952ZM65.2076 16.1473C65.2076 20.0227 62.7108 21.8414 58.822 21.8414H46.624V1.65723H58.4128C62.3012 1.65723 64.798 3.63528 64.798 7.10694C64.798 9.28683 63.9796 10.7405 62.424 11.7497C64.1844 12.5142 65.2076 14.0486 65.2076 16.1473ZM52.682 6.50145V9.48867H56.732C57.8372 9.48867 58.4924 9.00428 58.4924 7.95471C58.4924 6.98584 57.8372 6.50145 56.732 6.50145H52.682ZM52.682 16.9972H57.2256C58.29 16.9972 58.906 16.4321 58.906 15.4628C58.906 14.4136 58.292 13.9292 57.2256 13.9292H52.682V16.9972ZM68.2776 1.65723H74.4984V15.8652H83.422V21.8414H68.2768L68.2776 1.65723ZM106.305 11.7497C106.305 13.8256 105.681 15.8549 104.511 17.5809C103.342 19.3069 101.68 20.6522 99.7352 21.4466C97.7904 22.241 95.6504 22.4488 93.586 22.0439C91.5216 21.6389 89.6252 20.6393 88.1368 19.1714C86.6484 17.7035 85.6348 15.8333 85.224 13.7974C84.8136 11.7614 85.0244 9.65103 85.8296 7.73318C86.6352 5.81533 87.9992 4.17612 89.7496 3.02283C91.4996 1.86954 93.5572 1.25397 95.6624 1.25397C97.0604 1.25123 98.4456 1.52076 99.738 2.04712C101.03 2.57348 102.204 3.3463 103.193 4.32124C104.182 5.2962 104.966 6.45406 105.5 7.72848C106.034 9.00286 106.308 10.3687 106.305 11.7476V11.7497ZM100.083 11.7497C100.083 9.24648 98.0772 7.26843 95.6624 7.26843C93.2472 7.26843 91.2412 9.24648 91.2412 11.7497C91.2412 14.253 93.2472 16.2306 95.6624 16.2306C98.0772 16.2306 100.083 14.25 100.083 11.7476V11.7497ZM121.286 11.4264L128 21.8414H120.589L116.907 15.9052L113.1 21.8414H105.568L112.568 11.6682L106.141 1.65723H113.55L116.948 7.10694L120.222 1.65723H127.59L121.286 11.4264Z" fill="#191919"/>
</g>
<defs>
<clipPath id="clip0_2038_378">
<rect width="128" height="24" fill="white"/>
</clipPath>
</defs>
</svg>
