<svg width="41" height="20" viewBox="0 0 41 20" fill="none" xmlns="http://www.w3.org/2000/svg">
<g clip-path="url(#clip0_135_4277)">
<path d="M0.685954 19.6785H3.99374V5.48867H0.685954V19.6785ZM2.33322 3.6278C3.3694 3.6278 4.17973 2.82458 4.17973 1.8206C4.17973 0.803188 3.3694 0 2.33322 0C1.31033 0 0.5 0.803223 0.5 1.8206C0.5 2.82461 1.31033 3.6278 2.33322 3.6278ZM15.0068 0.0400618C9.41429 0.0400618 5.90708 3.88208 5.90708 10.0267C5.90708 16.1713 9.41395 20 15.0068 20C20.5861 20 24.0933 16.1713 24.0933 10.0267C24.0933 3.88208 20.5865 0.0400618 15.0068 0.0400618ZM15.0068 2.98517C18.4209 2.98517 20.5994 5.71608 20.5994 10.0266C20.5994 14.3238 18.4208 17.0548 15.0068 17.0548C11.5796 17.0548 9.41429 14.3238 9.41429 10.0266C9.41429 5.71615 11.5796 2.98517 15.0068 2.98517ZM25.4887 14.2436C25.6348 17.8046 28.5308 19.9999 32.9411 19.9999C37.5774 19.9999 40.5 17.6974 40.5 14.0294C40.5 11.1513 38.8527 9.53144 34.9605 8.63459L32.7553 8.12589C30.404 7.56365 29.4343 6.81399 29.4343 5.52886C29.4343 3.92245 30.8955 2.85151 33.0608 2.85151C35.2527 2.85151 36.7537 3.93585 36.9132 5.74305H40.1811C40.1014 2.34281 37.3117 0.0401646 33.0875 0.0401646C28.9161 0.0401646 25.9537 2.35607 25.9537 5.78315C25.9537 8.54083 27.6275 10.2544 31.161 11.071L33.6451 11.6601C36.0629 12.2357 37.0459 13.0389 37.0459 14.4311C37.0459 16.0375 35.4385 17.1888 33.1272 17.1888C30.7892 17.1888 29.0225 16.0242 28.8099 14.2437H25.4889L25.4887 14.2436Z" fill="white"/>
</g>
<defs>
<clipPath id="clip0_135_4277">
<rect width="40" height="20" fill="white" transform="translate(0.5)"/>
</clipPath>
</defs>
</svg>
