<svg width="24" height="24" viewBox="0 0 24 24" fill="none" xmlns="http://www.w3.org/2000/svg">
<path d="M18.4405 3.05957H5.56055C4.89807 3.06142 4.26326 3.3254 3.79482 3.79384C3.32638 4.26229 3.06239 4.8971 3.06055 5.55957V18.4396C3.06239 19.102 3.32638 19.7369 3.79482 20.2053C4.26326 20.6737 4.89807 20.9377 5.56055 20.9396H18.4405C19.1036 20.9396 19.7395 20.6762 20.2083 20.2073C20.6772 19.7385 20.9405 19.1026 20.9405 18.4396V5.55957C20.9405 4.89653 20.6772 4.26064 20.2083 3.7918C19.7395 3.32296 19.1036 3.05957 18.4405 3.05957ZM19.9405 18.4396C19.9379 18.8366 19.7791 19.2166 19.4983 19.4973C19.2176 19.7781 18.8376 19.937 18.4405 19.9396H5.56055C5.16353 19.937 4.78352 19.7781 4.50278 19.4973C4.22204 19.2166 4.06317 18.8366 4.06055 18.4396V5.55957C4.06317 5.16255 4.22204 4.78254 4.50278 4.50181C4.78352 4.22107 5.16353 4.06219 5.56055 4.05957H18.4405C18.8376 4.06219 19.2176 4.22107 19.4983 4.50181C19.7791 4.78254 19.9379 5.16255 19.9405 5.55957V18.4396Z" fill="white"/>
<path d="M6.375 10.748C6.375 10.4828 6.48036 10.2285 6.66789 10.0409C6.85543 9.8534 7.10978 9.74805 7.375 9.74805C7.64022 9.74805 7.89457 9.8534 8.08211 10.0409C8.26964 10.2285 8.375 10.4828 8.375 10.748V17.248C8.375 17.5133 8.26964 17.7676 8.08211 17.9552C7.89457 18.1427 7.64022 18.248 7.375 18.248C7.10978 18.248 6.85543 18.1427 6.66789 17.9552C6.48036 17.7676 6.375 17.5133 6.375 17.248V10.748Z" fill="white"/>
<path d="M7.375 7.74414C7.92728 7.74414 8.375 7.29643 8.375 6.74414C8.375 6.19186 7.92728 5.74414 7.375 5.74414C6.82272 5.74414 6.375 6.19186 6.375 6.74414C6.375 7.29643 6.82272 7.74414 7.375 7.74414Z" fill="white"/>
<path d="M17.6206 13.3704V17.2504C17.6206 17.5156 17.5153 17.7699 17.3277 17.9575C17.1402 18.145 16.8858 18.2504 16.6206 18.2504C16.3554 18.2504 16.1011 18.145 15.9135 17.9575C15.726 17.7699 15.6206 17.5156 15.6206 17.2504V13.3704C15.6206 12.942 15.4505 12.5312 15.1476 12.2284C14.8447 11.9255 14.4339 11.7554 14.0056 11.7554C13.5773 11.7554 13.1665 11.9255 12.8636 12.2284C12.5608 12.5312 12.3906 12.942 12.3906 13.3704V17.2504C12.3906 17.5156 12.2853 17.7699 12.0977 17.9575C11.9102 18.145 11.6558 18.2504 11.3906 18.2504C11.1254 18.2504 10.8711 18.145 10.6835 17.9575C10.496 17.7699 10.3906 17.5156 10.3906 17.2504V10.7504C10.3947 10.4864 10.5014 10.2345 10.6881 10.0478C10.8747 9.86116 11.1267 9.75448 11.3906 9.75035C11.56 9.74571 11.7275 9.78694 11.8753 9.86968C12.0232 9.95241 12.146 10.0736 12.2306 10.2204C12.7805 9.90871 13.4025 9.74689 14.0346 9.75108C14.6666 9.75527 15.2864 9.92532 15.8321 10.2442C16.3778 10.5631 16.8302 11.0197 17.1441 11.5683C17.4579 12.1169 17.6223 12.7383 17.6206 13.3704Z" fill="white"/>
</svg>
