<svg width="280" height="56" viewBox="0 0 280 56" fill="none" xmlns="http://www.w3.org/2000/svg">
<g clip-path="url(#clip0_135_1499)">
<path d="M33.7572 35.4769L41.8168 50.6112L26.8624 50.6112L20.0573 37.6775L13.6103 37.6775L13.6103 50.6112L8.2981e-07 50.6112L6.29623e-08 4.76428L24.8925 4.76428C35.1898 4.76428 41.7273 10.6279 41.7273 21.1727C41.7273 27.958 38.6829 32.8187 33.7572 35.4769ZM13.6103 16.6797L13.6103 25.7573L23.2808 25.7573C26.1461 25.7573 27.9369 24.0152 27.9369 21.1727C27.9369 18.3302 26.1461 16.6797 23.2808 16.6797L13.6103 16.6797ZM85.0653 54L44.324 42.7217L55.248 0.999999L75.6187 6.63917L95.9893 12.2783L85.0653 54ZM77.3648 23.2816L65.993 20.0723L62.9486 31.7175L74.3204 34.9277L77.3648 23.2816ZM142.642 37.6775C142.642 46.4802 137.18 50.6112 128.673 50.6112L101.99 50.6112L101.99 4.76428L127.778 4.76428C136.284 4.76428 141.746 9.25728 141.746 17.1429C141.746 22.0944 139.955 25.3963 136.552 27.6887C140.403 29.4251 142.642 32.9105 142.642 37.6775ZM115.242 15.7676L115.242 22.5528L124.101 22.5528C126.519 22.5528 127.952 21.4526 127.952 19.0686C127.952 16.8678 126.519 15.7676 124.101 15.7676L115.242 15.7676ZM115.242 39.6079L125.181 39.6079C127.509 39.6079 128.857 38.3243 128.857 36.1226C128.857 33.7395 127.514 32.6392 125.181 32.6392L115.242 32.6392L115.242 39.6079ZM149.357 4.76428L162.965 4.76428L162.965 37.0366L182.486 37.0366L182.486 50.6112L149.356 50.6112L149.357 4.76428ZM232.542 27.6887C232.542 32.4039 231.177 37.0132 228.618 40.9337C226.061 44.8542 222.424 47.9099 218.171 49.7144C213.917 51.5188 209.235 51.991 204.719 51.071C200.203 50.1511 196.055 47.8806 192.799 44.5464C189.543 41.2123 187.326 36.9643 186.427 32.3398C185.53 27.7152 185.991 22.9216 187.752 18.5654C189.515 14.2091 192.498 10.4857 196.327 7.86613C200.155 5.24651 204.656 3.8483 209.262 3.8483C212.32 3.84207 215.35 4.45431 218.177 5.64989C221.003 6.84547 223.572 8.60088 225.735 10.8154C227.898 13.0299 229.613 15.6599 230.781 18.5547C231.949 21.4493 232.548 24.5517 232.542 27.6839L232.542 27.6887ZM218.932 27.6887C218.932 22.0027 214.544 17.5097 209.262 17.5097C203.978 17.5097 199.59 22.0027 199.59 27.6887C199.59 33.3747 203.978 37.8667 209.262 37.8667C214.544 37.8667 218.932 33.368 218.932 27.6839L218.932 27.6887ZM265.314 26.9542L280 50.6112L263.788 50.6112L255.734 37.1274L247.406 50.6112L230.93 50.6112L246.242 27.5034L232.184 4.76428L248.391 4.76427L255.823 17.1429L262.987 4.76427L279.104 4.76427L265.314 26.9542Z" fill="#F1F7FF"/>
</g>
<defs>
<clipPath id="clip0_135_1499">
<rect width="280" height="56" fill="white"/>
</clipPath>
</defs>
</svg>
