<svg width="87" height="24" viewBox="0 0 87 24" fill="none" xmlns="http://www.w3.org/2000/svg">
<path d="M1 23.6135H4.37232V13.1668C4.37232 11.1064 5.50984 9.6094 7.13516 9.6094C8.70604 9.6094 9.6813 10.7846 9.6813 12.6838V23.6135H12.9586V13.0699C12.9586 11.0261 14.0691 9.6094 15.6941 9.6094C17.3464 9.6094 18.2673 10.8003 18.2673 12.8927V23.6135H21.6396V11.9112C21.6396 8.49929 19.7841 6.22921 16.9536 6.22921C14.8814 6.22921 13.1753 7.54947 12.4843 9.65761H12.4029C11.8749 7.46871 10.4257 6.22921 8.39436 6.22921C6.44419 6.22921 4.92739 7.5334 4.30437 9.51338H4.23677V6.55145H1V23.6135ZM29.0208 20.8609C27.5584 20.8609 26.5835 19.9758 26.5835 18.5751C26.5835 17.2236 27.5175 16.3541 29.1428 16.2251L32.4607 15.9837V17.2874C32.4607 19.3478 30.9304 20.8609 29.0208 20.8609ZM28.0049 23.8871C29.8469 23.8871 31.6484 22.7444 32.4746 20.8934H32.5422V23.6135H35.7925V11.863C35.7925 8.43459 33.4765 6.19707 29.9149 6.19707C26.2583 6.19707 23.9697 8.48281 23.8207 11.6697H26.9489C27.1656 10.2535 28.1814 9.33578 29.7793 9.33578C31.4452 9.33578 32.461 10.366 32.461 12.1527V13.3761L28.6689 13.6336C25.1749 13.8912 23.2112 15.71 23.2112 18.7363C23.2112 21.8103 25.2286 23.8871 28.0049 23.8871ZM50.5954 12.6356C50.3652 9.04651 48.0222 6.19707 44.23 6.19707C40.0593 6.19707 37.3505 9.62547 37.3505 15.0821C37.3505 20.6194 40.0589 23.951 44.2574 23.951C47.8596 23.951 50.3382 21.4398 50.6089 17.6249H47.4262C47.1149 19.5567 46.0041 20.7154 44.298 20.7154C42.1582 20.7154 40.7769 18.6551 40.7769 15.0816C40.7769 11.5729 42.1446 9.44787 44.2709 9.44787C46.072 9.44787 47.1416 10.8159 47.4127 12.6352L50.5954 12.6356ZM61.0102 0C55.3091 0 51.7336 4.61968 51.7336 12.008C51.7336 19.3964 55.3088 24 61.0105 24C66.6984 24 70.2739 19.3964 70.2739 12.008C70.2739 4.61968 66.6988 0 61.0102 0ZM61.0102 3.5413C64.491 3.5413 66.712 6.82506 66.712 12.008C66.712 17.1749 64.4907 20.4587 61.0105 20.4587C57.5165 20.4587 55.3091 17.1749 55.3091 12.008C55.3091 6.82506 57.5165 3.5413 61.0105 3.5413H61.0102ZM71.6964 17.0785C71.8455 21.3599 74.7976 24 79.294 24C84.0205 24 87 21.2313 87 16.821C87 13.3604 85.3206 11.4126 81.3523 10.3342L79.1043 9.72271C76.7073 9.04651 75.7188 8.14491 75.7188 6.59966C75.7188 4.6683 77.2086 3.3806 79.416 3.3806C81.6505 3.3806 83.1808 4.68437 83.3434 6.8572H86.6751C86.5937 2.76909 83.7497 0.000412061 79.443 0.000412061C75.1905 0.000412061 72.1704 2.78475 72.1704 6.90541C72.1704 10.2213 73.8768 12.2816 77.479 13.2636L80.0116 13.9724C82.4766 14.6642 83.4786 15.6301 83.4786 17.3039C83.4786 19.2357 81.8398 20.6198 79.4836 20.6198C77.1001 20.6198 75.299 19.2196 75.0823 17.0785H71.6964Z" fill="white"/>
</svg>
