<svg width="175" height="20" viewBox="0 0 175 20" fill="none" xmlns="http://www.w3.org/2000/svg">
<g clip-path="url(#clip0_135_4392)">
<path d="M32.5 1H35.6601L41.0346 10.711L46.4091 1H49.5V16.9769H46.9166V4.72254L42.211 13.2081H39.789L35.0834 4.74567V17H32.5V1Z" fill="white"/>
<path d="M58.8918 17C57.6184 17 56.5163 16.7352 55.5612 16.1815C54.6061 15.6519 53.8225 14.8574 53.3082 13.8944C52.7694 12.9315 52.5 11.8 52.5 10.5481C52.5 9.27222 52.7694 8.14074 53.2837 7.15371C53.798 6.16667 54.5327 5.3963 55.4633 4.84259C56.3939 4.28889 57.4714 4 58.6714 4C59.8714 4 60.9 4.28889 61.7816 4.84259C62.6388 5.3963 63.3245 6.19074 63.7898 7.17777C64.2551 8.18888 64.5 9.36852 64.5 10.7167V11.463H55.2184C55.3898 12.4741 55.8061 13.2685 56.4674 13.8463C57.1286 14.4241 57.9857 14.713 58.9898 14.713C59.798 14.713 60.5082 14.5926 61.0959 14.3519C61.6837 14.1111 62.2469 13.75 62.7612 13.2685L64.2061 15.0259C62.7612 16.3741 60.998 17 58.8918 17ZM60.9 7.15371C60.3367 6.57593 59.5776 6.28704 58.6469 6.28704C57.7408 6.28704 56.9816 6.57592 56.3694 7.17777C55.7571 7.75555 55.3653 8.55 55.2184 9.53704H61.8796C61.7816 8.50185 61.4633 7.70741 60.9 7.15371Z" fill="white"/>
<path d="M66.019 6.7363H63.5V4.57926H66.019V1H68.6603V4.57926H72.4755V6.7363H68.6603V12.2119C68.6603 13.1126 68.8315 13.7763 69.1495 14.1556C69.4674 14.5348 70.0299 14.7481 70.8125 14.7481C71.106 14.7481 71.3995 14.7482 71.6929 14.7007C71.9375 14.677 72.2065 14.6296 72.5 14.5822V16.7156C72.1576 16.8104 71.8397 16.8815 71.4973 16.9289C71.106 16.9763 70.7147 17 70.3234 17C67.4864 17 66.0679 15.5067 66.0679 12.4963V6.7363H66.019Z" fill="white"/>
<path d="M85.5 16.7111H83.0108V14.9778C82.5881 15.6278 82.001 16.1333 81.32 16.4704C80.6389 16.8315 79.864 17 78.9951 17C77.9384 17 76.9755 16.7111 76.1536 16.1574C75.3317 15.6037 74.6742 14.8333 74.2045 13.8463C73.7348 12.8593 73.5 11.7519 73.5 10.5C73.5 9.22407 73.7348 8.11667 74.228 7.12963C74.6977 6.16667 75.3787 5.3963 76.2241 4.84259C77.0695 4.28889 78.0558 4 79.136 4C79.9579 4 80.7094 4.16852 81.3669 4.48148C82.0245 4.79444 82.5881 5.27592 83.0108 5.87777V4.28888H85.5V16.7111ZM82.9638 8.67037C82.682 7.97222 82.2593 7.41852 81.6722 7.00926C81.0851 6.6 80.4041 6.40741 79.6526 6.40741C78.5724 6.40741 77.7035 6.76852 77.0695 7.51482C76.4354 8.26111 76.1067 9.27222 76.1067 10.5241C76.1067 11.8 76.4119 12.8111 77.046 13.5574C77.6566 14.3037 78.502 14.6648 79.5587 14.6648C80.3337 14.6648 81.0382 14.4481 81.6487 14.0389C82.2593 13.6296 82.7055 13.0518 82.9638 12.3778V8.67037Z" fill="white"/>
<path d="M108.407 4.1737C109.136 5.47648 109.5 6.94813 109.5 8.63691C109.5 10.2051 109.16 11.6043 108.48 12.8589C107.8 14.1134 106.901 15.1025 105.76 15.8504C106.877 17.2497 107.8 18.6248 108.553 20H105.444C104.861 18.9144 104.23 17.9011 103.501 16.9119C102.7 17.1532 101.85 17.2738 101 17.2738C99.7614 17.2738 98.6443 17.0567 97.6 16.6466C96.58 16.2364 95.6814 15.6333 94.9043 14.8372C94.1271 14.041 93.5443 13.1242 93.1314 12.0869C92.7186 11.0253 92.5 9.89143 92.5 8.63691C92.5 7.38239 92.7186 6.22437 93.1314 5.18697C93.52 4.1737 94.1271 3.23281 94.9043 2.43667C95.6571 1.66466 96.58 1.0374 97.6 0.627263C98.6443 0.193005 99.7614 0 101 0C102.651 0 104.109 0.361883 105.396 1.10977C106.683 1.83354 107.703 2.89505 108.407 4.1737ZM96.1429 11.7973C96.6286 12.7141 97.2843 13.4379 98.1343 13.9445C98.9843 14.4511 99.9557 14.7165 101.024 14.7165C102.117 14.7165 103.089 14.4511 103.939 13.9445C104.789 13.4379 105.444 12.7141 105.93 11.7973C106.416 10.8806 106.659 9.81906 106.659 8.61278C106.659 7.40651 106.416 6.34499 105.93 5.42823C105.444 4.51146 104.789 3.7877 103.939 3.28106C103.089 2.77443 102.141 2.50905 101.024 2.50905C99.9314 2.50905 98.96 2.77443 98.1343 3.28106C97.2843 3.7877 96.6286 4.51146 96.1429 5.42823C95.6571 6.34499 95.4143 7.40651 95.4143 8.61278C95.4143 9.81906 95.6571 10.8806 96.1429 11.7973Z" fill="white"/>
<path d="M122.5 17.704H119.96V15.8786C119.001 17.3093 117.707 18 116.029 18C114.568 18 113.465 17.5313 112.674 16.5939C111.907 15.6565 111.5 14.2998 111.5 12.5484V5H114.088V12.2277C114.088 13.4118 114.28 14.2751 114.687 14.8425C115.095 15.4099 115.718 15.6812 116.581 15.6812C117.324 15.6812 117.995 15.4839 118.57 15.0892C119.145 14.6945 119.6 14.1271 119.912 13.4118V5H122.5V17.704Z" fill="white"/>
<path d="M129.892 17C128.618 17 127.516 16.7352 126.561 16.1815C125.606 15.6519 124.822 14.8574 124.308 13.8944C123.769 12.9315 123.5 11.8 123.5 10.5481C123.5 9.27222 123.769 8.14074 124.284 7.15371C124.798 6.16667 125.533 5.3963 126.463 4.84259C127.394 4.28889 128.471 4 129.671 4C130.871 4 131.9 4.28889 132.782 4.84259C133.639 5.3963 134.324 6.19074 134.79 7.17777C135.255 8.18888 135.5 9.36852 135.5 10.7167V11.463H126.218C126.39 12.4741 126.806 13.2685 127.467 13.8463C128.129 14.4241 128.986 14.713 129.99 14.713C130.798 14.713 131.508 14.5926 132.096 14.3519C132.684 14.1111 133.247 13.75 133.761 13.2685L135.206 15.0259C133.761 16.3741 131.998 17 129.892 17ZM131.9 7.15371C131.337 6.57593 130.578 6.28704 129.647 6.28704C128.741 6.28704 127.982 6.57592 127.369 7.17777C126.757 7.75555 126.365 8.55 126.218 9.53704H132.88C132.806 8.50185 132.463 7.70741 131.9 7.15371Z" fill="white"/>
<path d="M147.084 15.9388C146.14 16.6382 144.874 17 143.26 17C141.92 17 140.728 16.7588 139.735 16.3006C138.741 15.8423 137.997 15.2152 137.5 14.4434L139.313 12.9239C139.685 13.4787 140.206 13.9128 140.877 14.2505C141.547 14.564 142.317 14.7328 143.235 14.7328C144.949 14.7328 145.793 14.2505 145.793 13.2857C145.793 12.8757 145.644 12.538 145.371 12.2968C145.098 12.0557 144.626 11.8627 143.98 11.7662L141.522 11.3562C140.355 11.1633 139.461 10.7532 138.866 10.1503C138.245 9.54731 137.947 8.77551 137.947 7.81076C137.947 6.65306 138.419 5.73655 139.362 5.03711C140.306 4.33767 141.597 4 143.186 4C144.353 4 145.396 4.24119 146.339 4.69945C147.258 5.1577 147.953 5.76067 148.4 6.50835L146.538 7.859C146.215 7.37662 145.768 6.96661 145.147 6.7013C144.527 6.41188 143.831 6.26717 143.012 6.26717C142.242 6.26717 141.671 6.38775 141.249 6.65306C140.827 6.91837 140.628 7.25603 140.628 7.71429C140.628 8.10019 140.753 8.41373 141.001 8.6308C141.249 8.84787 141.671 8.99258 142.267 9.11317L145.048 9.59555C146.165 9.7885 147.009 10.1985 147.605 10.8256C148.201 11.4527 148.499 12.2245 148.499 13.1651C148.524 14.2987 148.027 15.2393 147.084 15.9388Z" fill="white"/>
<path d="M151.019 6.7363H148.5V4.57926H151.019V1H153.66V4.57926H157.476V6.7363H153.66V12.2119C153.66 13.1126 153.832 13.7763 154.149 14.1556C154.467 14.5348 155.03 14.7481 155.812 14.7481C156.106 14.7481 156.399 14.7482 156.693 14.7007C156.937 14.677 157.207 14.6296 157.5 14.5822V16.7156C157.158 16.8104 156.84 16.8815 156.497 16.9289C156.106 16.9763 155.715 17 155.323 17C152.486 17 151.068 15.5067 151.068 12.4963V6.7363H151.019Z" fill="white"/>
<path d="M7.99636 0H7.97264L7.94892 2.94635H7.97264C9.82299 2.94635 11.2701 4.48142 14.4014 9.97796L14.5912 10.3246L14.6149 10.3493L16.3704 7.60108L16.3466 7.57632C15.9434 6.88306 15.5401 6.23932 15.1605 5.6451C14.7098 4.9766 14.3065 4.35762 13.8795 3.81292C11.7919 1.03989 10.0602 0 7.99636 0Z" fill="white"/>
<path d="M7.97264 0C5.88507 0 4.03482 1.41127 2.70637 3.56533V3.59009L5.14977 4.9766C5.14977 4.9766 5.14977 4.95184 5.17349 4.95184C5.95633 3.73864 6.92886 2.94635 7.94892 2.94635H7.97264L8.02018 0C7.97273 0 7.97264 0 7.97264 0Z" fill="white"/>
<path d="M2.70637 3.56533C1.82864 5.00136 1.16441 6.73448 0.808576 8.61618V8.64094L3.56037 9.30944V9.28468C3.84504 7.62582 4.41438 6.1155 5.12605 4.95182C5.12605 4.95182 5.12605 4.92706 5.14977 4.92706L2.70637 3.56533Z" fill="white"/>
<path d="M3.56009 9.28466L0.808299 8.61616V8.64092C0.61852 9.68081 0.52363 10.7207 0.52363 11.7853V11.8101L3.34659 12.0824V12.0577C3.34659 12.0082 3.34659 11.9339 3.34659 11.8844C3.32287 10.993 3.41776 10.1512 3.56009 9.28466Z" fill="white"/>
<path d="M3.41785 12.9738C3.37041 12.6767 3.34669 12.3549 3.32296 12.0577V12.033L0.5 11.7606V11.7854C0.5 12.4044 0.547444 13.0233 0.642334 13.6176V13.6423L3.41785 12.9738Z" fill="white"/>
<path d="M4.05863 14.4841C3.75024 14.1375 3.53674 13.6423 3.41813 12.9986V12.9738L0.666335 13.6423V13.6671C0.879836 14.806 1.28312 15.7468 1.85245 16.4649C1.85245 16.4649 1.85245 16.4896 1.87618 16.4896L4.05863 14.4841C4.08236 14.5089 4.05863 14.5089 4.05863 14.4841Z" fill="white"/>
<path d="M12.1953 6.36317C10.5347 9.0124 9.53841 10.6713 9.53841 10.6713C7.33223 14.2614 6.57311 15.0784 5.33955 15.0784C4.81766 15.0784 4.39065 14.8803 4.08226 14.5337C4.08226 14.5337 4.08226 14.5337 4.05854 14.5089L1.87608 16.4649C1.87608 16.4649 1.87608 16.4897 1.89981 16.4897C2.70637 17.4553 3.84504 18 5.24466 18C7.37967 18 8.89791 16.9601 11.626 12.0083C11.626 12.0083 12.7647 9.92849 13.5475 8.49245C13.0493 7.65064 12.5986 6.95739 12.1953 6.36317Z" fill="white"/>
<path d="M15.1369 2.17876C14.6624 2.69871 14.2592 3.24341 13.8559 3.78811C14.2592 4.33281 14.6862 4.9518 15.1369 5.6203C15.6588 4.77849 16.1332 4.10998 16.6077 3.59004C16.6077 3.59004 16.6077 3.59004 16.6314 3.56528L15.1369 2.17876Z" fill="white"/>
<path d="M23.1785 1.93122C22.0161 0.718014 20.6402 0 19.1694 0C17.6275 0 16.3227 0.891329 15.1366 2.17881C15.1366 2.17881 15.1366 2.20357 15.1129 2.20357L16.6074 3.59009C16.6074 3.59009 16.6074 3.59009 16.6311 3.56533C17.414 2.72351 18.1494 2.3026 18.9796 2.3026C19.8811 2.3026 20.7114 2.74828 21.4468 3.51581C21.4468 3.51581 21.4468 3.51581 21.4705 3.54057L23.1785 1.93122Z" fill="white"/>
<path d="M26.5 11.3892C26.4288 7.47724 25.1241 4.01095 23.1789 1.95593C23.1789 1.95593 23.1789 1.95593 23.1551 1.93117L21.4234 3.54052C21.4234 3.54052 21.4234 3.54052 21.4471 3.56528C22.9179 5.12511 23.9143 8.0467 24.0092 11.414V11.4387H26.5C26.5 11.3892 26.5 11.3892 26.5 11.3892Z" fill="white"/>
<path d="M26.4999 11.414L26.5 11.3892L24.0091 11.3892L24.0092 11.414C24.0092 11.5625 24.0091 11.7359 24.0091 11.8844C24.0091 12.8005 23.8667 13.5433 23.6058 14.088C23.6058 14.088 23.6058 14.1128 23.5821 14.1128L25.4324 16.1183C25.4324 16.1183 25.4324 16.0935 25.4561 16.0935C26.1204 15.0041 26.4762 13.5185 26.4762 11.6864C26.4999 11.5873 26.4999 11.513 26.4999 11.414Z" fill="white"/>
<path d="M23.6295 14.088C23.3923 14.5584 23.0602 14.8555 22.6332 15.0041L23.4872 17.7771C23.6058 17.7276 23.7007 17.7028 23.8193 17.6533C23.843 17.6285 23.8904 17.6285 23.9142 17.6038C23.9379 17.6038 23.9616 17.579 23.9616 17.579C24.531 17.2819 25.0054 16.8362 25.3612 16.3163C25.385 16.2915 25.4087 16.242 25.4324 16.2173C25.4561 16.1925 25.4561 16.1677 25.4798 16.143C25.4798 16.143 25.4798 16.1182 25.5036 16.1182L23.6295 14.088Z" fill="white"/>
<path d="M22.0873 15.0536C21.8263 15.0536 21.5654 15.0041 21.3044 14.9051L20.4504 17.7524C20.9249 17.9257 21.4468 18 22.0398 18C22.538 18 23.0362 17.9257 23.5106 17.7524L22.6566 14.9794C22.4668 15.0289 22.2771 15.0536 22.0873 15.0536Z" fill="white"/>
<path d="M20.3558 14.088L18.3631 16.2173C18.3631 16.2173 18.3631 16.242 18.3869 16.242C19.0748 17.0096 19.739 17.48 20.4744 17.7523L21.3284 14.9298C21.02 14.7812 20.7117 14.5089 20.3558 14.088Z" fill="white"/>
<path d="M20.3558 14.0632C19.7628 13.3452 19.0274 12.132 17.865 10.2008L16.3466 7.57632L16.323 7.55156L14.5676 10.2998L14.5912 10.3246L15.6588 12.2063C16.7026 14.0137 17.5329 15.326 18.3631 16.242C18.3631 16.242 18.3631 16.2421 18.3869 16.2668L20.3558 14.0632C20.3558 14.088 20.3558 14.088 20.3558 14.0632Z" fill="white"/>
<path d="M163.649 17V14.5954L169.067 9.39306C169.528 8.93064 169.914 8.51445 170.226 8.14451C170.543 7.77457 170.784 7.41233 170.947 7.0578C171.111 6.69814 171.193 6.31021 171.193 5.89403C171.193 5.4316 171.091 5.0334 170.888 4.69942C170.685 4.36031 170.407 4.10083 170.055 3.921C169.704 3.73603 169.305 3.64355 168.859 3.64355C168.393 3.64355 167.987 3.74117 167.64 3.93642C167.293 4.13166 167.025 4.41169 166.837 4.77649C166.649 5.1413 166.555 5.57547 166.555 6.079H163.5C163.5 5.04624 163.725 4.14965 164.176 3.38921C164.627 2.62877 165.259 2.04046 166.072 1.62428C166.884 1.20809 167.821 1 168.881 1C169.971 1 170.92 1.20039 171.728 1.60116C172.54 1.99679 173.172 2.54656 173.623 3.25048C174.074 3.9544 174.299 4.76108 174.299 5.67052C174.299 6.26654 174.185 6.85485 173.957 7.43545C173.734 8.01606 173.336 8.66089 172.761 9.36994C172.186 10.0739 171.376 10.9191 170.33 11.9056L168.108 14.1638V14.2717H174.5V17H163.649Z" fill="white"/>
</g>
<defs>
<clipPath id="clip0_135_4392">
<rect width="174" height="20" fill="white" transform="translate(0.5)"/>
</clipPath>
</defs>
</svg>
