<svg width="108" height="24" viewBox="0 0 108 24" fill="none" xmlns="http://www.w3.org/2000/svg">
<g clip-path="url(#clip0_135_4242)">
<path d="M5.29502 19.0697C6.00064 19.3244 7.27662 19.2525 8.14548 18.9083L10.5 17.9657V20.6953C10.3498 20.7227 10.1851 20.753 10.032 20.7804C7.67612 21.2046 5.16512 21.0282 2.69406 20.1289C0.389011 19.4137 0.00424814 17.9242 1.05514 17.0638C2.02751 16.2694 3.6782 15.6741 3.6782 15.6741L10.5 13V16.0476L5.591 17.9867C4.72193 18.3294 4.59105 18.817 5.29502 19.0697Z" fill="white"/>
<path d="M29.2324 17.6173C28.6441 18.3973 27.2064 18.9543 27.2064 18.9543L16.5 23V20.0174L24.3788 17.0619C25.2732 16.7254 25.4113 16.2489 24.6849 15.9993C23.9585 15.7491 22.6456 15.8206 21.7509 16.1569L16.5 18.1038V15.0087L16.8013 14.9014C16.8013 14.9014 18.3203 14.3351 20.4514 14.085C22.5854 13.8417 25.1983 14.1189 27.2484 14.9382C29.5595 15.7065 29.8193 16.839 29.2324 17.6173Z" fill="white"/>
<path d="M18.1779 13.3748V5.87417C18.1779 4.99585 18.0254 4.18679 17.2452 3.9567C16.6481 3.75031 16.2792 4.34043 16.2792 5.21886V24L11.5 22.3917V0C13.5331 0.399303 16.4916 1.3445 18.0837 1.91086C22.1285 3.38579 23.5 5.21886 23.5 9.34786C23.5 13.3733 21.1567 14.9003 18.1779 13.3748Z" fill="white"/>
<path d="M96.4981 16.6807C96.4981 16.7421 96.4528 16.7891 96.3998 16.7891H83.3014C83.1945 16.7891 83.1388 16.7612 83.1237 16.7188C83.108 16.6519 83.1429 16.6031 83.2195 16.547L96.2561 7.92305C96.3473 7.86295 96.4981 7.8723 96.4981 8.06455V16.6807ZM102.399 16.7943L99.4995 16.792H99.6003C99.5454 16.792 99.4995 16.7436 99.4995 16.6871V6.59456C99.4995 5.04371 98.5005 4.53528 97.0987 5.46543L80.2734 16.5685C79.6115 17.0048 79.3898 17.4974 79.5497 17.8624C79.6876 18.1761 80.0509 18.3947 80.7789 18.3947L96.4058 18.3961C96.4495 18.3996 96.4849 18.4318 96.4954 18.4751V19.8916C96.4954 19.9514 96.5393 20 96.5918 20H99.4017C99.4541 20 99.4995 19.9514 99.4995 19.8916V18.5045C99.4995 18.4445 99.5454 18.3961 99.5978 18.3961H102.399C102.454 18.3961 102.5 18.3473 102.5 18.2889V16.8978C102.5 16.8427 102.454 16.7943 102.399 16.7943Z" fill="white"/>
<path d="M54.6638 13.0648H43.2117C42.1542 13.0648 41.4154 14.052 41.4154 15.4649V19.8943C41.4154 19.9529 41.3728 20 41.3199 20H38.5971C38.5444 20 38.5013 19.9541 38.5013 19.8943L38.5 15.4649C38.5 13.1817 39.8974 11.4614 41.752 11.4614H53.6987C54.9793 11.4614 55.5862 10.4442 55.5862 9.03219C55.5862 7.61929 54.9771 6.60225 53.6987 6.60225H38.5971C38.5428 6.60225 38.5 6.55499 38.5 6.49686V5.10389C38.5 5.04694 38.5428 5 38.5955 5H54.6638C57.2401 5 58.5 6.75311 58.5 9.03541C58.5 11.3162 57.2401 13.0648 54.6638 13.0648Z" fill="white"/>
<path d="M80.4067 6.60195H72.5389C71.2684 6.60195 70.6644 7.61818 70.6644 9.03158V15.9698C70.6644 18.2521 69.4091 20 66.8496 20H57.5951C57.5423 20 57.5 19.953 57.5 19.8944V18.5019C57.5 18.4422 57.5423 18.3964 57.593 18.3964H65.8916C67.1634 18.3964 67.7674 17.3805 67.7674 15.9683V9.03448C67.7674 6.75484 69.0203 5.00139 71.5799 5.00139L80.4067 5C80.4575 5 80.5 5.04681 80.5 5.1054V6.49793C80.5 6.55455 80.4588 6.60195 80.4067 6.60195Z" fill="white"/>
</g>
<defs>
<clipPath id="clip0_135_4242">
<rect width="107" height="24" fill="white" transform="translate(0.5)"/>
</clipPath>
</defs>
</svg>
