<svg width="360" height="40" viewBox="0 0 360 40" fill="none" xmlns="http://www.w3.org/2000/svg">
<path d="M106 24H86V16H104C105.105 16 106 16.8954 106 18V24Z" fill="#22282F"/>
<path d="M344 20C344 21.1046 343.105 22 342 22H322V12C322 10.8954 322.895 10 324 10H342C343.105 10 344 10.8954 344 12V20Z" fill="#22282F"/>
<path d="M97 16H86V2C86 0.895431 86.8954 0 88 0H95C96.1046 0 97 0.895431 97 2V16Z" fill="#22282F"/>
<path d="M334 30H322V22H334V30Z" fill="#22282F"/>
<path d="M360 40H339V34C339 32.8954 339.895 32 341 32H360V40Z" fill="#22282F"/>
<path d="M360 32H348V26C348 24.8954 348.895 24 350 24H358C359.105 24 360 24.8954 360 26V32Z" fill="#22282F"/>
<path d="M318 40H263V34C263 32.8954 263.895 32 265 32H316C317.105 32 318 32.8954 318 34V40Z" fill="#22282F"/>
<path d="M309 32H279V26C279 24.8954 279.895 24 281 24H307C308.105 24 309 24.8954 309 26V32Z" fill="#22282F"/>
<path d="M242 40H220V34C220 32.8954 220.895 32 222 32H242V40Z" fill="#22282F"/>
<path d="M242 32H230V26C230 24.8954 230.895 24 232 24H240C241.105 24 242 24.8954 242 26V32Z" fill="#22282F"/>
<path d="M189 40H24V34C24 32.8954 24.8954 32 26 32H187C188.105 32 189 32.8954 189 34V40Z" fill="#22282F"/>
<path d="M179 32H149V26C149 24.8954 149.895 24 151 24H177C178.105 24 179 24.8954 179 26V32Z" fill="#22282F"/>
<path d="M131 32H114V26C114 24.8954 114.895 24 116 24H129C130.105 24 131 24.8954 131 26V32Z" fill="#22282F"/>
<path d="M77 32H39V26C39 24.8954 39.8954 24 41 24H75C76.1046 24 77 24.8954 77 26V32Z" fill="#22282F"/>
<path d="M13 40H0V32H11C12.1046 32 13 32.8954 13 34V40Z" fill="#22282F"/>
</svg>
