<svg width="125" height="26" viewBox="0 0 125 26" fill="none" xmlns="http://www.w3.org/2000/svg">
<g clip-path="url(#clip0_135_4409)">
<path d="M11.5 12.5H26V0L11.5 2.02912V12.5Z" fill="white"/>
<path d="M11 12.5V2L0 3.57421V12.5H11Z" fill="white"/>
<path d="M11 13.5H0V22.4844L11 24V13.5Z" fill="white"/>
<path d="M11.5 13.5V24.0223L26 26V13.5H11.5Z" fill="white"/>
<path d="M55.5 6.03377L50.8211 23H48.5475L45.1372 10.5919C45.0054 10.1192 44.923 9.56207 44.89 8.86991H44.8406C44.7747 9.46077 44.6759 10.0179 44.5276 10.5581L41.1008 22.9831H38.8437L34 6.01688H36.1253L39.651 19.0328C39.7992 19.6068 39.8981 20.1807 39.9475 20.7378H39.9969C40.0299 20.2651 40.1452 19.6912 40.3429 19.0328L44.0169 6.01688H45.895L49.3877 19.1172C49.5195 19.6068 49.6184 20.1301 49.6678 20.6872H49.7172C49.7502 20.282 49.8655 19.7418 50.0303 19.0665L53.4077 6H55.5V6.03377Z" fill="white"/>
<path d="M59 6.72136C59 7.06796 58.9067 7.36505 58.7067 7.61262C58.5067 7.84369 58.2667 7.95922 58 7.95922C57.72 7.95922 57.48 7.84369 57.2933 7.61262C57.1067 7.38155 57 7.08447 57 6.72136C57 6.39126 57.0933 6.11068 57.28 5.8631C57.4667 5.61553 57.7067 5.5 58 5.5C58.28 5.5 58.52 5.61553 58.72 5.8631C58.8933 6.09417 59 6.37476 59 6.72136ZM58.7333 22.5H57.2V10.6495H58.7333V22.5Z" fill="white"/>
<path d="M71.5 23H69.6669V16.0537C69.6669 13.4721 68.7743 12.1814 67.005 12.1814C66.0965 12.1814 65.3473 12.538 64.7416 13.2683C64.1359 13.9986 63.8331 14.9158 63.8331 16.0537V23H62V10.8057H63.8331V12.8268H63.8809C64.7416 11.2813 65.9849 10.5 67.6267 10.5C68.8859 10.5 69.8423 10.9416 70.4958 11.8077C71.1493 12.6739 71.4841 13.9137 71.4841 15.5272V23H71.5Z" fill="white"/>
<path d="M85.5 22.7169H83.592V20.6855H83.5422C82.6629 22.234 81.3024 23 79.4442 23C77.9344 23 76.7398 22.4505 75.8439 21.3682C74.948 20.2858 74.5 18.8372 74.5 17.0222C74.5 15.0407 74.9977 13.4588 75.9766 12.2599C76.9721 11.0611 78.2828 10.4616 79.9419 10.4616C81.5679 10.4616 82.7624 11.111 83.509 12.3932H83.5588V5H85.4668V22.7169H85.5ZM83.6086 17.3219V15.5569C83.6086 14.5745 83.2768 13.7419 82.6297 13.0925C81.9827 12.4431 81.1863 12.1101 80.2406 12.1101C79.0958 12.1101 78.1833 12.543 77.503 13.3922C76.8228 14.2414 76.491 15.4237 76.491 16.9389C76.491 18.3043 76.8062 19.3867 77.4367 20.1859C78.0671 20.9852 78.9299 21.3848 80.0083 21.3848C81.0535 21.3848 81.9163 21.0019 82.5965 20.2359C83.2602 19.4699 83.6086 18.5042 83.6086 17.3219Z" fill="white"/>
<path d="M99.5 16.7001C99.5 18.5951 98.9561 20.1243 97.8513 21.2713C96.7465 22.4182 95.2847 23 93.432 23C91.6303 23 90.1856 22.4348 89.1147 21.3211C88.0439 20.1908 87.5 18.7281 87.5 16.883C87.5 14.9049 88.0439 13.359 89.1487 12.2121C90.2535 11.0652 91.7663 10.5 93.704 10.5C95.5227 10.5 96.9334 11.0485 97.9533 12.1622C98.9901 13.2593 99.5 14.7719 99.5 16.7001ZM97.5113 16.7666C97.5113 15.2706 97.1714 14.1237 96.4915 13.3258C95.8116 12.5279 94.8428 12.129 93.585 12.129C92.3272 12.129 91.3414 12.5445 90.6105 13.359C89.8796 14.1735 89.5227 15.3371 89.5227 16.8165C89.5227 18.246 89.8966 19.3597 90.6275 20.1576C91.3584 20.9555 92.3442 21.371 93.602 21.371C94.8768 21.371 95.8456 20.9721 96.5255 20.1908C97.1714 19.3763 97.5113 18.246 97.5113 16.7666Z" fill="white"/>
<path d="M117 10.5167L113.356 22.5H111.339L108.831 13.9214C108.746 13.621 108.678 13.2538 108.644 12.8199H108.593C108.576 13.0869 108.492 13.4541 108.339 13.888L105.627 22.4833H103.678L100 10.5H102.051L104.559 19.5125C104.644 19.8296 104.695 20.1801 104.729 20.5807H104.831C104.847 20.2803 104.915 19.9131 105.051 19.4791L107.847 10.5H109.627L112.153 19.5292C112.237 19.8296 112.288 20.1968 112.322 20.5974H112.424C112.441 20.2302 112.508 19.863 112.61 19.5292L115.085 10.5H117V10.5167Z" fill="white"/>
<path d="M125 19.5259C125 20.5565 124.619 21.4043 123.857 22.0359C123.095 22.6842 122.079 23 120.825 23C119.746 23 118.81 22.7673 118 22.2852V20.2407C118.905 21.0053 119.889 21.3876 120.952 21.3876C122.397 21.3876 123.127 20.8391 123.127 19.7254C123.127 19.2766 122.984 18.9109 122.698 18.6283C122.413 18.3457 121.778 17.9634 120.778 17.4814C119.762 17.0326 119.063 16.5505 118.635 16.0352C118.222 15.5199 118.016 14.8384 118.016 13.9741C118.016 12.9934 118.397 12.1622 119.143 11.4973C119.905 10.8324 120.857 10.5 122.016 10.5C122.921 10.5 123.73 10.6828 124.444 11.0652V12.9934C123.698 12.4282 122.841 12.1456 121.857 12.1456C121.254 12.1456 120.778 12.2952 120.413 12.611C120.048 12.9269 119.857 13.3258 119.857 13.8078C119.857 14.3398 120 14.7387 120.286 15.0213C120.571 15.3039 121.143 15.6363 122.032 16.0352C123.111 16.5173 123.873 17.016 124.317 17.5479C124.778 18.0632 125 18.7281 125 19.5259Z" fill="white"/>
</g>
<defs>
<clipPath id="clip0_135_4409">
<rect width="125" height="26" fill="white"/>
</clipPath>
</defs>
</svg>
