<svg width="122" height="24" viewBox="0 0 122 24" fill="none" xmlns="http://www.w3.org/2000/svg">
<g clip-path="url(#clip0_135_4239)">
<path d="M77.5998 19L72.9753 12.9304L68.3557 19H66.4507L72.0107 11.6649L66.9306 5H68.8356L72.9753 10.4369L77.1151 5H79.0153L73.94 11.6649L79.5 19H77.5998ZM41.5542 18.9953L35.9893 11.6649L41.0694 5H39.1644L35.0247 10.4369L30.8898 5H28.9896L34.0649 11.6649L28.5 18.9953H30.405L35.0247 12.9257L39.6491 18.9953H41.5542Z" fill="white"/>
<path d="M52.4885 12.3904C52.203 12.1494 51.8835 11.947 51.5399 11.7879C52.6095 11.2193 53.2775 10.1108 53.2775 8.90602C53.2775 7.98554 52.9387 4.98795 48.5777 4.98795H42.7065V11.1952H40.7511C40.4994 11.5229 39.9234 12.3132 39.7007 12.641H42.7065V19.3831H48.5777C51.7577 19.3831 53.7325 17.7735 53.7325 15.1807C53.7373 14.0482 53.3065 13.0891 52.4885 12.3904ZM44.3328 6.49156H48.5825C49.7296 6.49156 51.656 6.7759 51.656 8.78072C51.656 10.294 50.5331 11.1952 48.5825 11.1952H44.3328V6.49156ZM48.5777 17.8843H44.328V12.6458H48.5777C50.1894 12.6458 52.1158 13.0891 52.1158 15.1518C52.1158 17.5277 49.899 17.8843 48.5777 17.8843ZM61.3751 4.66024C57.3142 4.66024 54.473 7.75421 54.473 12.1831C54.473 16.6169 57.3094 19.706 61.3751 19.706C65.4312 19.706 68.2627 16.6169 68.2627 12.1831C68.2627 7.75421 65.4312 4.66024 61.3751 4.66024ZM61.3751 18.1831C58.2822 18.1831 56.1138 15.7157 56.1138 12.1831C56.1138 8.6506 58.2822 6.18313 61.3751 6.18313C64.4632 6.18313 66.6219 8.6506 66.6219 12.1831C66.6219 15.7157 64.4632 18.1831 61.3751 18.1831ZM4.09628 3.4506L4.0866 3.46024C1.78751 5.71566 0.49518 8.79036 0.50002 12C0.49518 14.6265 1.36157 17.1807 2.96368 19.2675C2.9782 19.2867 3.00724 19.3012 3.0266 19.2867C3.04596 19.2723 3.0508 19.2482 3.04112 19.2241C2.12148 16.3952 6.81647 9.53734 9.24625 6.66506C9.25593 6.65542 9.26561 6.64578 9.26561 6.63132C9.26561 6.61686 9.25593 6.60241 9.24141 6.59277C5.15629 2.5494 4.06724 3.4747 4.08176 3.46024M21.0079 3.4506L21.0176 3.46024C23.3167 5.71084 24.6042 8.79036 24.5993 12C24.6042 14.6265 23.7378 17.1807 22.1357 19.2675C22.1212 19.2867 22.0921 19.3012 22.0728 19.2867C22.0534 19.2723 22.0534 19.2482 22.0582 19.2241C22.9779 16.3952 18.2829 9.53252 15.858 6.66024C15.8483 6.6506 15.8386 6.64096 15.8386 6.6265C15.8386 6.60722 15.8483 6.59759 15.8628 6.58795C19.9479 2.54458 21.0321 3.4747 21.0176 3.46024M12.5521 0C14.9819 0 16.9857 0.66506 18.8298 1.75422C18.854 1.76385 18.8589 1.79277 18.8492 1.81205C18.8395 1.83132 18.8153 1.83614 18.7911 1.83132C16.4581 1.33012 12.9103 3.33494 12.5763 3.53735C12.5666 3.54217 12.5618 3.54699 12.5521 3.54699C12.5424 3.54699 12.5327 3.54217 12.5279 3.53735C11.6373 3.0265 8.36049 1.31566 6.29373 1.84578C6.26953 1.8506 6.24533 1.84578 6.23565 1.8265C6.22597 1.80241 6.23565 1.77831 6.25501 1.76867C8.09912 0.66506 10.1272 0 12.5521 0ZM12.5521 9.62409C12.5666 9.62409 12.5811 9.63373 12.5908 9.64337C16.1968 12.3759 22.368 19.1229 20.4852 21.0313L20.49 21.0265V21.0313H20.4852C18.2877 22.9494 15.4659 24.0048 12.5473 24C9.62862 24.0048 6.80679 22.9494 4.61418 21.0313C2.73135 19.1229 8.9026 12.3711 12.5085 9.64337C12.5182 9.63373 12.5376 9.62409 12.5521 9.62409ZM107.865 4.99277V16.8048L99.1238 4.98313L97.6911 4.97831V19.3638H99.298V7.81204L107.865 19.3735L109.477 19.3783V4.99277H107.865ZM89.3418 4.65542C85.2808 4.65542 82.4396 7.74939 82.4396 12.1783C82.4396 16.612 85.2808 19.706 89.3418 19.706C93.3978 19.706 96.2294 16.612 96.2294 12.1783C96.2294 7.75421 93.3978 4.65542 89.3418 4.65542ZM89.3418 18.1831C86.2489 18.1831 84.0805 15.7157 84.0805 12.1783C84.0805 8.64578 86.2489 6.17831 89.3418 6.17831C92.4298 6.17831 94.5885 8.64578 94.5885 12.1783C94.5837 15.7108 92.4298 18.1831 89.3418 18.1831ZM112.904 17.9663V12.6458H120.856V11.2385H112.904V6.39036H121.398V4.98313H111.287V19.3735H121.5V17.9663H112.904Z" fill="white"/>
</g>
<defs>
<clipPath id="clip0_135_4239">
<rect width="121" height="24" fill="white" transform="translate(0.5)"/>
</clipPath>
</defs>
</svg>
